<svg xmlns="http://www.w3.org/2000/svg" xmlns:xlink="http://www.w3.org/1999/xlink" width="300" height="300" viewBox="0 0 300 300"><rect width="100%" height="100%" fill="#DDDDDD"/><path d="M60.09 154.94L68.47 154.94L68.47 158.16L56.19 158.16L56.19 137.19L60.09 137.19L60.09 154.94ZM77.28 143.05L77.28 143.05Q78.93 143.05 80.28 143.58Q81.64 144.12 82.60 145.11Q83.57 146.09 84.09 147.51Q84.61 148.93 84.61 150.69L84.61 150.69Q84.61 152.46 84.09 153.88Q83.57 155.30 82.60 156.30Q81.64 157.30 80.28 157.84Q78.93 158.37 77.28 158.37L77.28 158.37Q75.61 158.37 74.24 157.84Q72.88 157.30 71.92 156.30Q70.95 155.30 70.42 153.88Q69.89 152.46 69.89 150.69L69.89 150.69Q69.89 148.93 70.42 147.51Q70.95 146.09 71.92 145.11Q72.88 144.12 74.24 143.58Q75.61 143.05 77.28 143.05ZM77.28 155.62L77.28 155.62Q79.13 155.62 80.02 154.37Q80.91 153.12 80.91 150.72L80.91 150.72Q80.91 148.31 80.02 147.05Q79.13 145.79 77.28 145.79L77.28 145.79Q75.39 145.79 74.48 147.06Q73.58 148.33 73.58 150.72L73.58 150.72Q73.58 153.11 74.48 154.36Q75.39 155.62 77.28 155.62ZM95.21 154.31L95.21 151.81Q93.66 151.88 92.60 152.07Q91.54 152.27 90.91 152.57Q90.27 152.88 89.99 153.28Q89.72 153.69 89.72 154.17L89.72 154.17Q89.72 155.11 90.27 155.52Q90.83 155.92 91.73 155.92L91.73 155.92Q92.83 155.92 93.64 155.52Q94.44 155.13 95.21 154.31L95.21 154.31ZM87.64 146.50L87.00 145.35Q89.57 143.00 93.18 143.00L93.18 143.00Q94.49 143.00 95.52 143.43Q96.55 143.86 97.26 144.62Q97.97 145.38 98.34 146.44Q98.71 147.50 98.71 148.76L98.71 148.76L98.71 158.16L97.08 158.16Q96.57 158.16 96.30 158.00Q96.02 157.85 95.86 157.39L95.86 157.39L95.55 156.31Q94.98 156.82 94.44 157.21Q93.91 157.59 93.33 157.85Q92.75 158.11 92.09 158.25Q91.43 158.39 90.63 158.39L90.63 158.39Q89.69 158.39 88.89 158.13Q88.09 157.88 87.51 157.37Q86.93 156.87 86.61 156.11Q86.29 155.36 86.29 154.36L86.29 154.36Q86.29 153.79 86.48 153.23Q86.67 152.68 87.10 152.17Q87.53 151.66 88.21 151.21Q88.89 150.76 89.88 150.43Q90.88 150.09 92.20 149.88Q93.52 149.67 95.21 149.63L95.21 149.63L95.21 148.76Q95.21 147.27 94.57 146.55Q93.94 145.83 92.73 145.83L92.73 145.83Q91.86 145.83 91.29 146.03Q90.72 146.24 90.28 146.49Q89.85 146.74 89.49 146.95Q89.14 147.15 88.70 147.15L88.70 147.15Q88.32 147.15 88.06 146.96Q87.80 146.76 87.64 146.50L87.64 146.50ZM111.41 153.75L111.41 147.08Q110.80 146.34 110.08 146.03Q109.36 145.73 108.54 145.73L108.54 145.73Q107.73 145.73 107.07 146.03Q106.42 146.34 105.96 146.96Q105.49 147.57 105.25 148.52Q105.00 149.47 105.00 150.76L105.00 150.76Q105.00 152.07 105.21 152.97Q105.42 153.88 105.81 154.45Q106.20 155.02 106.77 155.28Q107.33 155.53 108.03 155.53L108.03 155.53Q109.15 155.53 109.93 155.07Q110.71 154.60 111.41 153.75L111.41 153.75ZM111.41 136.61L114.99 136.61L114.99 158.16L112.80 158.16Q112.09 158.16 111.90 157.50L111.90 157.50L111.60 156.07Q110.70 157.10 109.53 157.74Q108.36 158.37 106.81 158.37L106.81 158.37Q105.59 158.37 104.58 157.87Q103.56 157.36 102.83 156.39Q102.10 155.43 101.70 154.01Q101.30 152.59 101.30 150.76L101.30 150.76Q101.30 149.11 101.75 147.69Q102.20 146.27 103.04 145.22Q103.88 144.18 105.06 143.59Q106.23 143.00 107.70 143.00L107.70 143.00Q108.94 143.00 109.83 143.40Q110.71 143.79 111.41 144.45L111.41 144.45L111.41 136.61ZM118.64 143.28L122.24 143.28L122.24 158.16L118.64 158.16L118.64 143.28ZM122.73 138.94L122.73 138.94Q122.73 139.41 122.54 139.81Q122.36 140.22 122.04 140.52Q121.73 140.83 121.31 141.01Q120.89 141.19 120.41 141.19L120.41 141.19Q119.95 141.19 119.54 141.01Q119.12 140.83 118.82 140.52Q118.51 140.22 118.33 139.81Q118.15 139.41 118.15 138.94L118.15 138.94Q118.15 138.47 118.33 138.04Q118.51 137.62 118.82 137.32Q119.12 137.02 119.54 136.83Q119.95 136.65 120.41 136.65L120.41 136.65Q120.89 136.65 121.31 136.83Q121.73 137.02 122.04 137.32Q122.36 137.62 122.54 138.04Q122.73 138.47 122.73 138.94ZM129.00 143.93L129.24 145.11Q129.69 144.66 130.19 144.27Q130.69 143.89 131.25 143.62Q131.81 143.35 132.45 143.20Q133.09 143.05 133.84 143.05L133.84 143.05Q135.06 143.05 136.00 143.46Q136.94 143.87 137.57 144.62Q138.20 145.37 138.53 146.40Q138.86 147.44 138.86 148.69L138.86 148.69L138.86 158.16L135.28 158.16L135.28 148.69Q135.28 147.32 134.65 146.58Q134.03 145.83 132.75 145.83L132.75 145.83Q131.82 145.83 131.01 146.25Q130.20 146.67 129.48 147.40L129.48 147.40L129.48 158.16L125.89 158.16L125.89 143.28L128.08 143.28Q128.78 143.28 129.00 143.93L129.00 143.93ZM147.69 150.36L147.69 150.36Q148.35 150.36 148.85 150.17Q149.34 149.99 149.67 149.67Q149.99 149.35 150.16 148.91Q150.33 148.46 150.33 147.92L150.33 147.92Q150.33 146.82 149.67 146.17Q149.01 145.53 147.69 145.53L147.69 145.53Q146.37 145.53 145.71 146.17Q145.05 146.82 145.05 147.92L145.05 147.92Q145.05 148.44 145.22 148.89Q145.38 149.34 145.71 149.67Q146.03 149.99 146.53 150.17Q147.03 150.36 147.69 150.36ZM151.73 158.82L151.73 158.82Q151.73 158.39 151.47 158.11Q151.21 157.84 150.76 157.69Q150.31 157.53 149.71 157.46Q149.11 157.39 148.43 157.35Q147.76 157.32 147.04 157.29Q146.32 157.26 145.64 157.17L145.64 157.17Q145.05 157.50 144.68 157.95Q144.31 158.40 144.31 159.00L144.31 159.00Q144.31 159.39 144.50 159.73Q144.70 160.07 145.13 160.32Q145.56 160.56 146.24 160.70Q146.92 160.84 147.90 160.84L147.90 160.84Q148.91 160.84 149.63 160.69Q150.36 160.53 150.83 160.27Q151.30 160.00 151.52 159.63Q151.73 159.26 151.73 158.82ZM151.02 143.79L155.30 143.79L155.30 145.12Q155.30 145.76 154.53 145.90L154.53 145.90L153.20 146.15Q153.50 146.92 153.50 147.83L153.50 147.83Q153.50 148.93 153.06 149.83Q152.62 150.72 151.83 151.34Q151.05 151.96 149.99 152.31Q148.92 152.65 147.69 152.65L147.69 152.65Q147.25 152.65 146.85 152.60Q146.44 152.56 146.05 152.49L146.05 152.49Q145.35 152.91 145.35 153.43L145.35 153.43Q145.35 153.88 145.77 154.09Q146.18 154.30 146.86 154.39Q147.54 154.47 148.41 154.50Q149.28 154.52 150.20 154.59Q151.11 154.66 151.98 154.84Q152.85 155.02 153.53 155.42Q154.21 155.81 154.63 156.48Q155.04 157.16 155.04 158.21L155.04 158.21Q155.04 159.20 154.55 160.13Q154.07 161.06 153.15 161.78Q152.23 162.51 150.88 162.95Q149.54 163.39 147.83 163.39L147.83 163.39Q146.15 163.39 144.90 163.06Q143.66 162.74 142.83 162.19Q142.00 161.65 141.60 160.94Q141.19 160.23 141.19 159.46L141.19 159.46Q141.19 158.42 141.82 157.71Q142.45 157.01 143.55 156.59L143.55 156.59Q142.96 156.29 142.61 155.78Q142.26 155.27 142.26 154.44L142.26 154.44Q142.26 154.11 142.39 153.76Q142.51 153.40 142.75 153.05Q142.99 152.70 143.35 152.39Q143.71 152.08 144.21 151.83L144.21 151.83Q143.08 151.23 142.43 150.21Q141.79 149.20 141.79 147.83L141.79 147.83Q141.79 146.73 142.23 145.84Q142.67 144.95 143.46 144.32Q144.25 143.69 145.33 143.35Q146.41 143.02 147.69 143.02L147.69 143.02Q148.64 143.02 149.49 143.21Q150.33 143.41 151.02 143.79L151.02 143.79ZM172.47 154.31L172.47 151.81Q170.92 151.88 169.86 152.07Q168.80 152.27 168.16 152.57Q167.52 152.88 167.25 153.28Q166.97 153.69 166.97 154.17L166.97 154.17Q166.97 155.11 167.53 155.52Q168.09 155.92 168.99 155.92L168.99 155.92Q170.09 155.92 170.89 155.52Q171.70 155.13 172.47 154.31L172.47 154.31ZM164.90 146.50L164.26 145.35Q166.83 143.00 170.44 143.00L170.44 143.00Q171.74 143.00 172.77 143.43Q173.80 143.86 174.51 144.62Q175.22 145.38 175.59 146.44Q175.96 147.50 175.96 148.76L175.96 148.76L175.96 158.16L174.34 158.16Q173.83 158.16 173.56 158.00Q173.28 157.85 173.12 157.39L173.12 157.39L172.80 156.31Q172.24 156.82 171.70 157.21Q171.16 157.59 170.58 157.85Q170.00 158.11 169.34 158.25Q168.68 158.39 167.89 158.39L167.89 158.39Q166.94 158.39 166.15 158.13Q165.35 157.88 164.77 157.37Q164.19 156.87 163.87 156.11Q163.55 155.36 163.55 154.36L163.55 154.36Q163.55 153.79 163.74 153.23Q163.93 152.68 164.36 152.17Q164.78 151.66 165.46 151.21Q166.15 150.76 167.14 150.43Q168.13 150.09 169.45 149.88Q170.77 149.67 172.47 149.63L172.47 149.63L172.47 148.76Q172.47 147.27 171.83 146.55Q171.19 145.83 169.99 145.83L169.99 145.83Q169.12 145.83 168.55 146.03Q167.97 146.24 167.54 146.49Q167.10 146.74 166.75 146.95Q166.39 147.15 165.96 147.15L165.96 147.15Q165.58 147.15 165.32 146.96Q165.06 146.76 164.90 146.50L164.90 146.50ZM189.91 143.28L192.74 143.28L186.84 158.16L183.59 158.16L177.69 143.28L180.65 143.28Q181.05 143.28 181.32 143.47Q181.59 143.66 181.68 143.95L181.68 143.95L184.55 151.89Q184.78 152.59 184.95 153.26Q185.13 153.92 185.26 154.59L185.26 154.59Q185.40 153.92 185.58 153.26Q185.75 152.59 186.00 151.89L186.00 151.89L188.93 143.95Q189.03 143.66 189.29 143.47Q189.55 143.28 189.91 143.28L189.91 143.28ZM202.50 154.31L202.50 151.81Q200.95 151.88 199.89 152.07Q198.83 152.27 198.19 152.57Q197.55 152.88 197.28 153.28Q197.00 153.69 197.00 154.17L197.00 154.17Q197.00 155.11 197.56 155.52Q198.12 155.92 199.02 155.92L199.02 155.92Q200.12 155.92 200.92 155.52Q201.73 155.13 202.50 154.31L202.50 154.31ZM194.93 146.50L194.29 145.35Q196.86 143.00 200.47 143.00L200.47 143.00Q201.77 143.00 202.80 143.43Q203.83 143.86 204.54 144.62Q205.25 145.38 205.62 146.44Q205.99 147.50 205.99 148.76L205.99 148.76L205.99 158.16L204.37 158.16Q203.86 158.16 203.58 158.00Q203.31 157.85 203.15 157.39L203.15 157.39L202.83 156.31Q202.27 156.82 201.73 157.21Q201.19 157.59 200.61 157.85Q200.03 158.11 199.37 158.25Q198.71 158.39 197.92 158.39L197.92 158.39Q196.97 158.39 196.18 158.13Q195.38 157.88 194.80 157.37Q194.22 156.87 193.90 156.11Q193.58 155.36 193.58 154.36L193.58 154.36Q193.58 153.79 193.77 153.23Q193.96 152.68 194.38 152.17Q194.81 151.66 195.49 151.21Q196.18 150.76 197.17 150.43Q198.16 150.09 199.48 149.88Q200.80 149.67 202.50 149.63L202.50 149.63L202.50 148.76Q202.50 147.27 201.86 146.55Q201.22 145.83 200.02 145.83L200.02 145.83Q199.15 145.83 198.58 146.03Q198.00 146.24 197.57 146.49Q197.13 146.74 196.78 146.95Q196.42 147.15 195.99 147.15L195.99 147.15Q195.61 147.15 195.35 146.96Q195.09 146.76 194.93 146.50L194.93 146.50ZM214.31 158.39L214.31 158.39Q212.37 158.39 211.34 157.29Q210.30 156.20 210.30 154.27L210.30 154.27L210.30 145.96L208.78 145.96Q208.49 145.96 208.28 145.77Q208.08 145.58 208.08 145.21L208.08 145.21L208.08 143.79L210.47 143.40L211.23 139.34Q211.30 139.05 211.50 138.89Q211.70 138.73 212.02 138.73L212.02 138.73L213.88 138.73L213.88 143.41L217.85 143.41L217.85 145.96L213.88 145.96L213.88 154.02Q213.88 154.72 214.22 155.11Q214.56 155.50 215.16 155.50L215.16 155.50Q215.49 155.50 215.71 155.42Q215.94 155.34 216.11 155.26Q216.27 155.17 216.40 155.09Q216.53 155.01 216.66 155.01L216.66 155.01Q216.82 155.01 216.92 155.09Q217.03 155.17 217.14 155.33L217.14 155.33L218.22 157.07Q217.43 157.72 216.42 158.05Q215.40 158.39 214.31 158.39ZM228.00 154.31L228.00 151.81Q226.45 151.88 225.39 152.07Q224.33 152.27 223.70 152.57Q223.06 152.88 222.78 153.28Q222.51 153.69 222.51 154.17L222.51 154.17Q222.51 155.11 223.07 155.52Q223.62 155.92 224.52 155.92L224.52 155.92Q225.62 155.92 226.43 155.52Q227.23 155.13 228.00 154.31L228.00 154.31ZM220.43 146.50L219.80 145.35Q222.36 143.00 225.97 143.00L225.97 143.00Q227.28 143.00 228.31 143.43Q229.34 143.86 230.05 144.62Q230.76 145.38 231.13 146.44Q231.50 147.50 231.50 148.76L231.50 148.76L231.50 158.16L229.87 158.16Q229.37 158.16 229.09 158.00Q228.81 157.85 228.66 157.39L228.66 157.39L228.34 156.31Q227.77 156.82 227.23 157.21Q226.70 157.59 226.12 157.85Q225.54 158.11 224.88 158.25Q224.22 158.39 223.42 158.39L223.42 158.39Q222.48 158.39 221.68 158.13Q220.88 157.88 220.30 157.37Q219.72 156.87 219.40 156.11Q219.09 155.36 219.09 154.36L219.09 154.36Q219.09 153.79 219.27 153.23Q219.46 152.68 219.89 152.17Q220.32 151.66 221.00 151.21Q221.68 150.76 222.67 150.43Q223.67 150.09 224.99 149.88Q226.31 149.67 228.00 149.63L228.00 149.63L228.00 148.76Q228.00 147.27 227.36 146.55Q226.73 145.83 225.52 145.83L225.52 145.83Q224.65 145.83 224.08 146.03Q223.51 146.24 223.07 146.49Q222.64 146.74 222.28 146.95Q221.93 147.15 221.49 147.15L221.49 147.15Q221.12 147.15 220.85 146.96Q220.59 146.76 220.43 146.50L220.43 146.50ZM238.02 144.18L238.24 145.86Q238.94 144.53 239.89 143.76Q240.85 143.00 242.15 143.00L242.15 143.00Q243.18 143.00 243.81 143.45L243.81 143.45L243.58 146.14Q243.50 146.40 243.37 146.51Q243.23 146.61 243.00 146.61L243.00 146.61Q242.78 146.61 242.35 146.54Q241.92 146.47 241.52 146.47L241.52 146.47Q240.92 146.47 240.46 146.64Q239.99 146.82 239.62 147.14Q239.25 147.47 238.97 147.93Q238.69 148.40 238.44 148.99L238.44 148.99L238.44 158.16L234.86 158.16L234.86 143.28L236.96 143.28Q237.51 143.28 237.73 143.47Q237.95 143.67 238.02 144.18L238.02 144.18Z" fill="#999999"/></svg>